<?xml version="1.0" standalone="no"?>
<!DOCTYPE svg PUBLIC "-//W3C//DTD SVG 20010904//EN"
 "http://www.w3.org/TR/2001/REC-SVG-20010904/DTD/svg10.dtd">
<svg version="1.0" xmlns="http://www.w3.org/2000/svg"
 width="2167.000000pt" height="2167.000000pt" viewBox="0 0 2167.000000 2167.000000"
 preserveAspectRatio="xMidYMid meet">
<metadata>
Created by potrace 1.11, written by Peter Selinger 2001-2013
</metadata>
<g transform="translate(0.000000,2167.000000) scale(0.100000,-0.100000)"
fill="#000000" stroke="none">
<path d="M7090 10835 l0 -10835 695 0 695 0 0 5780 0 5780 1555 0 1555 0 0
690 0 690 -1552 2 -1553 3 -3 968 -2 967 1555 0 1555 0 0 690 0 690 -1555 0
-1555 0 0 975 0 975 1555 0 1555 0 0 690 0 690 -1552 2 -1553 3 -3 1038 -2
1037 -695 0 -695 0 0 -10835z"/>
<path d="M13140 15775 l0 -5895 -1555 0 -1555 0 0 -690 0 -690 1555 0 1555 0
0 -975 0 -975 -1555 0 -1555 0 0 -690 0 -690 1555 0 1555 0 0 -970 0 -970
-1555 0 -1555 0 0 -690 0 -690 1555 0 1555 0 0 -925 0 -925 700 0 700 0 0
10835 0 10835 -700 0 -700 0 0 -5895z"/>
</g>
</svg>
